<svg xmlns="http://www.w3.org/2000/svg" xmlns:se="http://svg-edit.googlecode.com" xmlns:xlink="http://www.w3.org/1999/xlink" xmlns:dc="http://purl.org/dc/elements/1.1/" xmlns:cc="http://creativecommons.org/ns#" xmlns:rdf="http://www.w3.org/1999/02/22-rdf-syntax-ns#" xmlns:inkscape="http://www.inkscape.org/namespaces/inkscape" width="777" height="480" style="">                                    <title>my vector image</title>                                    <!-- Created with Vector Paint - http://www.vectorpaint.yaks.com/ https://chrome.google.com/webstore/detail/hnbpdiengicdefcjecjbnjnoifekhgdo -->                                    <rect id="backgroundrect" width="100%" height="100%" x="0" y="0" fill="#FFFFFF" stroke="none"/>                                <g class="currentLayer" style=""><title>Layer 1</title><path fill="#4a90d6" fill-opacity="1" stroke="#222222" stroke-opacity="1" stroke-width="2" stroke-dasharray="none" stroke-linejoin="round" stroke-linecap="butt" stroke-dashoffset="" fill-rule="nonzero" opacity="1" marker-start="" marker-mid="" marker-end="" d="M18.06493377685547,76.61688232421875 C18.06493377685547,52.58373315294803 63.93509952271182,33.11688232421875 120.56493377685547,33.11688232421875 C177.19476803099911,33.11688232421875 223.06493377685547,52.58373315294803 223.06493377685547,76.61688232421875 C223.06493377685547,100.65003149548946 177.19476803099911,120.11688232421875 120.56493377685547,120.11688232421875 C63.93509952271182,120.11688232421875 18.06493377685547,100.65003149548946 18.06493377685547,76.61688232421875 z" id="svg_1" class=""/><path fill="#d50bd5" fill-opacity="1" stroke="#222222" stroke-opacity="1" stroke-width="2" stroke-dasharray="none" stroke-linejoin="round" stroke-linecap="butt" stroke-dashoffset="" fill-rule="nonzero" opacity="1" marker-start="" marker-mid="" marker-end="" id="svg_3" d="M135.6935138474143,70.33767350010785 C208.42078837619698,143.7142986943261 286.9922188938997,151.5065066795528 286.36363111223494,151.29869946566495 C286.9922188938997,151.5065066795528 351.27793477202016,104.75325876819252 350.6493453979492,104.54545271241818 C351.27793477202016,104.75325876819252 277.2519589123663,29.4285815776676 276.60260824693074,29.4285815776676 C275.95325758149517,29.4285815776676 171.40780044637006,13.844165607214151 162.9662417957078,12.54546427634304 C154.5246831450455,11.246762945471929 62.96623931863161,-3.0389516941103807 135.6935138474143,70.33767350010785 z" style="color: rgb(0, 0, 0);" class=""/><path fill="#4a90d6" fill-opacity="1" stroke="#222222" stroke-opacity="1" stroke-width="2" stroke-dasharray="none" stroke-linejoin="round" stroke-linecap="butt" stroke-dashoffset="" fill-rule="nonzero" opacity="1" marker-start="" marker-mid="" marker-end="" id="svg_5" d="M233.09611645315832,183.32468968737456 " style="color: rgb(0, 0, 0);"/></g></svg>